<svg xmlns="http://www.w3.org/2000/svg" width="48" height="49" viewBox="0 0 48 49" fill="none"><mask id="mask0_270_119" style="mask-type:alpha" maskUnits="userSpaceOnUse" x="0" y="0" width="48" height="49"><rect y="0.5" width="48" height="48" fill="#D9D9D9"></rect></mask><g mask="url(#mask0_270_119)"><path d="M24 46.5C20.2667 46.5 16.8333 45.65 13.7 43.95C10.5667 42.25 8 39.9833 6 37.15V42.5H2V30.5H14V34.5H9.05C10.65 36.9 12.7583 38.8333 15.375 40.3C17.9917 41.7667 20.8667 42.5 24 42.5C26.5 42.5 28.8417 42.025 31.025 41.075C33.2083 40.125 35.1083 38.8417 36.725 37.225C38.3417 35.6083 39.625 33.7083 40.575 31.525C41.525 29.3417 42 27 42 24.5H46C46 27.5333 45.425 30.3833 44.275 33.05C43.125 35.7167 41.55 38.05 39.55 40.05C37.55 42.05 35.2167 43.625 32.55 44.775C29.8833 45.925 27.0333 46.5 24 46.5ZM22.2 38.5V35.9C20.6333 35.5333 19.3583 34.8583 18.375 33.875C17.3917 32.8917 16.6667 31.6 16.2 30L19.5 28.7C19.9 30.0667 20.525 31.0917 21.375 31.775C22.225 32.4583 23.2 32.8 24.3 32.8C25.4 32.8 26.3417 32.5417 27.125 32.025C27.9083 31.5083 28.3 30.7 28.3 29.6C28.3 28.6333 27.8917 27.85 27.075 27.25C26.2583 26.65 24.8 25.9667 22.7 25.2C20.7333 24.5 19.2917 23.6667 18.375 22.7C17.4583 21.7333 17 20.4667 17 18.9C17 17.5333 17.475 16.2917 18.425 15.175C19.375 14.0583 20.6667 13.3333 22.3 13V10.5H25.8V13C27 13.1 28.0917 13.5833 29.075 14.45C30.0583 15.3167 30.7333 16.3333 31.1 17.5L27.9 18.8C27.6333 18.0333 27.2 17.3917 26.6 16.875C26 16.3583 25.1667 16.1 24.1 16.1C22.9333 16.1 22.0417 16.35 21.425 16.85C20.8083 17.35 20.5 18.0333 20.5 18.9C20.5 19.7667 20.8833 20.45 21.65 20.95C22.4167 21.45 23.8 22.0333 25.8 22.7C28.2 23.5667 29.8 24.5833 30.6 25.75C31.4 26.9167 31.8 28.2 31.8 29.6C31.8 30.5667 31.6333 31.4167 31.3 32.15C30.9667 32.8833 30.525 33.5083 29.975 34.025C29.425 34.5417 28.7833 34.9583 28.05 35.275C27.3167 35.5917 26.5333 35.8333 25.7 36V38.5H22.2ZM2 24.5C2 21.4667 2.575 18.6167 3.725 15.95C4.875 13.2833 6.45 10.95 8.45 8.95C10.45 6.95 12.7833 5.375 15.45 4.225C18.1167 3.075 20.9667 2.5 24 2.5C27.7333 2.5 31.1667 3.35 34.3 5.05C37.4333 6.75 40 9.01667 42 11.85V6.5H46V18.5H34V14.5H38.95C37.35 12.1 35.2417 10.1667 32.625 8.7C30.0083 7.23333 27.1333 6.5 24 6.5C21.5 6.5 19.1583 6.975 16.975 7.925C14.7917 8.875 12.8917 10.1583 11.275 11.775C9.65833 13.3917 8.375 15.2917 7.425 17.475C6.475 19.6583 6 22 6 24.5H2Z" fill="#1C1B1F"></path></g></svg>