<svg xmlns="http://www.w3.org/2000/svg" width="48" height="48" viewBox="0 0 48 48" fill="none"><mask id="mask0_270_163" style="mask-type:alpha" maskUnits="userSpaceOnUse" x="0" y="0" width="48" height="48"><rect width="48" height="48" fill="#D9D9D9"></rect></mask><g mask="url(#mask0_270_163)"><path d="M8.01667 43.055C6.42222 41.215 5.1875 39.1546 4.3125 36.8737C3.4375 34.5929 3 32.1683 3 29.6C3 23.85 5.04167 18.9625 9.125 14.9375C13.2083 10.9125 18.1667 8.9 24 8.9H24.4667L20.7333 5.22L24 2L33.3333 11.2L24 20.4L20.675 17.1225L24.35 13.5H24C19.4889 13.5 15.6389 15.0717 12.45 18.215C9.26111 21.3583 7.66667 25.1533 7.66667 29.6C7.66667 31.555 7.9875 33.395 8.62917 35.12C9.27083 36.845 10.175 38.3975 11.3417 39.7775L8.01667 43.055ZM21.6667 42.25C21.6667 41.3683 21.3653 40.4963 20.7625 39.6338C20.1597 38.7713 19.4889 37.8704 18.75 36.9312C18.0111 35.9921 17.3403 35.0146 16.7375 33.9988C16.1347 32.9829 15.8333 31.9 15.8333 30.75C15.8333 28.5267 16.6306 26.6292 18.225 25.0575C19.8194 23.4858 21.7444 22.7 24 22.7C26.2556 22.7 28.1806 23.4858 29.775 25.0575C31.3694 26.6292 32.1667 28.5267 32.1667 30.75C32.1667 31.9 31.8653 32.9829 31.2625 33.9988C30.6597 35.0146 29.9889 35.9921 29.25 36.9312C28.5111 37.8704 27.8403 38.7713 27.2375 39.6338C26.6347 40.4963 26.3333 41.3683 26.3333 42.25H21.6667ZM21.6667 48V44.55H26.3333V48H21.6667ZM39.9833 43.055L36.6583 39.7775C37.825 38.3975 38.7292 36.845 39.3708 35.12C40.0125 33.395 40.3333 31.555 40.3333 29.6C40.3333 27.07 39.7986 24.7221 38.7292 22.5562C37.6597 20.3904 36.1917 18.5792 34.325 17.1225L37.65 13.845C39.9056 15.7617 41.6944 18.0713 43.0167 20.7738C44.3389 23.4762 45 26.4183 45 29.6C45 32.1683 44.5625 34.5929 43.6875 36.8737C42.8125 39.1546 41.5778 41.215 39.9833 43.055Z" fill="#1C1B1F"></path></g></svg>