<svg xmlns="http://www.w3.org/2000/svg" width="48" height="48" viewBox="0 0 48 48" fill="none"><mask id="mask0_270_175" style="mask-type:alpha" maskUnits="userSpaceOnUse" x="0" y="0" width="48" height="48"><rect width="48" height="48" fill="#D9D9D9"></rect></mask><g mask="url(#mask0_270_175)"><path d="M42.6001 37.4L36.6001 31.4L39.4001 28.6L45.4001 34.6L42.6001 37.4ZM35.4001 13.4L32.6001 10.6L38.6001 4.6L41.4001 7.4L35.4001 13.4ZM12.6001 13.4L6.6001 7.4L9.4001 4.6L15.4001 10.6L12.6001 13.4ZM5.4001 37.4L2.6001 34.6L8.6001 28.6L11.4001 31.4L5.4001 37.4ZM17.7001 33.65L24.0001 29.85L30.3001 33.7L28.6501 26.5L34.2001 21.7L26.9001 21.05L24.0001 14.25L21.1001 21L13.8001 21.65L19.3501 26.5L17.7001 33.65ZM11.6501 42L14.9001 27.95L4.0001 18.5L18.4001 17.25L24.0001 4L29.6001 17.25L44.0001 18.5L33.1001 27.95L36.3501 42L24.0001 34.55L11.6501 42Z" fill="#1C1B1F"></path></g></svg>