<svg xmlns="http://www.w3.org/2000/svg" xmlns:xlink="http://www.w3.org/1999/xlink" width="100" height="100" viewBox="0 0 100 100"><defs><clipPath id="clip-path"><rect id="Rect&#xE1;ngulo_2552" data-name="Rect&#xE1;ngulo 2552" width="100" height="100" transform="translate(-17821 -9345)" fill="#fff" stroke="#707070" stroke-width="1"></rect></clipPath></defs><g id="Enmascarar_grupo_131" data-name="Enmascarar grupo 131" transform="translate(17821 9345)" clip-path="url(#clip-path)"><g id="ciudad-verde" transform="translate(-17818 -9337)"><path id="Trazado_872" data-name="Trazado 872" d="M175.822,197.43h11.732a1.378,1.378,0,0,0,0-2.756H175.822a1.378,1.378,0,1,0,0,2.756Z" transform="translate(-142.389 -163.838)" fill="#04425c"></path><path id="Trazado_873" data-name="Trazado 873" d="M92.706,174.819H84.093v-4.93h7.451a2.3,2.3,0,0,0,2.235-2.825l-3.792-16.057a2.288,2.288,0,0,0-2.235-1.769H71.631a2.287,2.287,0,0,0-2.04,1.241v-6.9a1.378,1.378,0,1,0-2.756,0v18.268L65.6,167.064a2.3,2.3,0,0,0,1.232,2.6v5.16H47.525v-.149A7.086,7.086,0,0,0,45.773,170a2.281,2.281,0,0,0,.752.129H50.47a2.3,2.3,0,0,0,2.3-2.3v-3.945a2.3,2.3,0,0,0-2.3-2.3H46.525a2.3,2.3,0,0,0-2.3,2.3v3.945a2.277,2.277,0,0,0,.225.985,7.072,7.072,0,0,0-3.538-1.247v-30a.261.261,0,0,1,.15-.237l25.769-11.964v19.585a1.378,1.378,0,1,0,2.756,0V124.818a2.4,2.4,0,0,0-3.414-2.18l-13.451,6.245V117.639a2.483,2.483,0,0,0-2.481-2.481H28.353a2.483,2.483,0,0,0-2.481,2.481v9.052a2.8,2.8,0,0,0-1.148-.154l-2.522.2a4.926,4.926,0,0,0-.693-.951l1.511-2.2a2.785,2.785,0,0,0,.415-2.208l-2.5-10.637a3.121,3.121,0,0,0-6.075,0l-2.5,10.637a2.772,2.772,0,0,0,.415,2.206l1.51,2.2a4.962,4.962,0,0,0-.69.951l-2.53-.2a2.791,2.791,0,0,0-2.115.747L.989,134.766a3.121,3.121,0,0,0,2.131,5.4,3.158,3.158,0,0,0,.905-.133l9.595-2.89-1.689,31.827h-1.4a2.108,2.108,0,0,0-2.106,2.106v3.747H1.382a1.378,1.378,0,1,0,0,2.756H92.706a1.378,1.378,0,1,0,0-2.756ZM46.985,164.348h3.027v3.027H46.985Zm34.363-12.354L81.6,155.2H77.784l.252-3.208Zm.469,5.965.252,3.208H77.315l.252-3.208Zm7.739,3.208H84.834l-.252-3.208H88.8Zm-7.016,5.966H76.845l.253-3.209h5.189Zm-7.989-5.966H69.829l.758-3.208H74.8Zm-6.13,5.966.758-3.209h5.155l-.253,3.209Zm9.626,2.756h3.291v4.93H78.046Zm7.258-2.756-.253-3.209h5.155l.758,3.209Zm2.843-11.93H84.365l-.252-3.208h3.277ZM72,151.995h3.277l-.252,3.208H71.237Zm-2.4,17.895h5.7v4.93h-5.7ZM44.768,174.67v.149H20.54v-.149a4.385,4.385,0,0,1,2.828-4.085,2.528,2.528,0,0,0,1.564-1.731,4.722,4.722,0,0,1,9.084-.218,2.352,2.352,0,0,0,2.255,1.671h4.134A4.368,4.368,0,0,1,44.768,174.67Zm-12.1-34.507a3.124,3.124,0,0,0,2.9-4.272h3.106a3.017,3.017,0,0,0-.516,1.681v4.495H33.433a1.378,1.378,0,0,0,0,2.756h4.726V151H33.433a1.378,1.378,0,0,0,0,2.756h4.726v6.176H33.433a1.378,1.378,0,1,0,0,2.756h4.726v4.862h-1.6a7.438,7.438,0,0,0-7.055-5,7.544,7.544,0,0,0-.878.052V139.084c3.024.871,3.267,1.079,4.044,1.079Zm17.3-22.248v12.248l-6.4,2.972H33.433a1.375,1.375,0,0,0-.324.04l-4.481-4.213V117.915ZM24.935,129.285a.026.026,0,0,1,.021.006l7.961,7.485a.361.361,0,0,1,.065.446.37.37,0,0,1-.421.167L22.1,134.239a.028.028,0,0,1-.013-.011l-.749-1.57a4.9,4.9,0,0,0,1.476-3.207Zm-9.2.1a2.173,2.173,0,1,1,2.413,1.9A2.176,2.176,0,0,1,15.737,129.386Zm1.8-18.012a.364.364,0,0,1,.709,0l2.5,10.651-1.608,2.339a4.893,4.893,0,0,0-2.491,0l-1.612-2.354ZM3.233,137.389a.366.366,0,0,1-.424-.166.362.362,0,0,1,.067-.447l7.956-7.482a.031.031,0,0,1,.018-.009l2.127.167a4.9,4.9,0,0,0,1.473,3.2l-.759,1.583Zm13.273-2.637.38-.8a4.838,4.838,0,0,0,2.017,0l.381.8.636,11.98a1.378,1.378,0,0,0,1.375,1.305l.074,0a1.378,1.378,0,0,0,1.3-1.449l-.5-9.45,3.7,1.115v25.24a7.483,7.483,0,0,0-2.205,1.861l-.654-12.338a1.378,1.378,0,1,0-2.752.146l.822,15.5q-.223.143-.434.3H14.691Zm-5.325,36.971h7.249a7.077,7.077,0,0,0-.646,2.948v.149h-6.6Z" transform="translate(0 -93.365)" fill="#04425c"></path><path id="Trazado_874" data-name="Trazado 874" d="M249.227,277.44a2.3,2.3,0,0,0-2.3-2.3h-3.945a2.3,2.3,0,0,0-2.3,2.3v3.945a2.3,2.3,0,0,0,2.3,2.3h3.945a2.3,2.3,0,0,0,2.3-2.3Zm-2.756,3.486h-3.027V277.9h3.027Z" transform="translate(-196.46 -229.52)" fill="#04425c"></path><path id="Trazado_875" data-name="Trazado 875" d="M307.753,277.44a2.3,2.3,0,0,0-2.3-2.3h-3.945a2.3,2.3,0,0,0-2.3,2.3v3.945a2.3,2.3,0,0,0,2.3,2.3h3.945a2.3,2.3,0,0,0,2.3-2.3ZM305,280.926h-3.026V277.9H305Z" transform="translate(-244.231 -229.52)" fill="#04425c"></path><path id="Trazado_876" data-name="Trazado 876" d="M246.93,336.649h-3.945a2.3,2.3,0,0,0-2.3,2.3v3.945a2.3,2.3,0,0,0,2.3,2.3h3.945a2.3,2.3,0,0,0,2.3-2.3v-3.945A2.3,2.3,0,0,0,246.93,336.649Zm-.459,5.783h-3.027v-3.026h3.027Z" transform="translate(-196.46 -279.724)" fill="#04425c"></path><path id="Trazado_877" data-name="Trazado 877" d="M307.753,338.945a2.3,2.3,0,0,0-2.3-2.3h-3.945a2.3,2.3,0,0,0-2.3,2.3v3.945a2.3,2.3,0,0,0,2.3,2.3h3.945a2.3,2.3,0,0,0,2.3-2.3ZM305,342.431h-3.026V339.4H305Z" transform="translate(-244.231 -279.723)" fill="#04425c"></path><path id="Trazado_878" data-name="Trazado 878" d="M305.457,398.153h-3.945a2.3,2.3,0,0,0-2.3,2.3V404.4a2.3,2.3,0,0,0,2.3,2.3h3.945a2.3,2.3,0,0,0,2.3-2.3V400.45A2.3,2.3,0,0,0,305.457,398.153ZM305,403.936h-3.026v-3.027H305Z" transform="translate(-244.232 -329.926)" fill="#04425c"></path><path id="Trazado_879" data-name="Trazado 879" d="M385.3,82.7a8.088,8.088,0,1,0-3.769-4.911A8.042,8.042,0,0,0,385.3,82.7Zm-.574-9.671a5.333,5.333,0,1,1-.533,4.046A5.329,5.329,0,0,1,384.722,73.024Z" transform="translate(-311.191 -60.117)" fill="#04425c"></path><path id="Trazado_880" data-name="Trazado 880" d="M351.575,68.061c1.038.551,1.3.877,1.887.877a1.378,1.378,0,0,0,.69-2.572l-1.2-.692a1.378,1.378,0,1,0-1.378,2.387Z" transform="translate(-286.408 -58.391)" fill="#04425c"></path><path id="Trazado_881" data-name="Trazado 881" d="M352.953,142.234l1.2-.692a1.378,1.378,0,0,0-1.378-2.387l-1.2.692a1.378,1.378,0,1,0,1.378,2.387Z" transform="translate(-286.408 -118.37)" fill="#04425c"></path><path id="Trazado_882" data-name="Trazado 882" d="M417.786,175.205v1.385a1.378,1.378,0,0,0,2.756,0v-1.385a1.378,1.378,0,0,0-2.756,0Z" transform="translate(-341.015 -146.822)" fill="#04425c"></path><path id="Trazado_883" data-name="Trazado 883" d="M478.847,141.541l1.2.692a1.378,1.378,0,0,0,1.378-2.387l-1.2-.692a1.378,1.378,0,1,0-1.378,2.387Z" transform="translate(-390.293 -118.369)" fill="#04425c"></path><path id="Trazado_884" data-name="Trazado 884" d="M480.225,68.753l1.2-.692a1.378,1.378,0,0,0-1.378-2.387l-1.2.692a1.378,1.378,0,1,0,1.378,2.387Z" transform="translate(-390.293 -58.392)" fill="#04425c"></path><path id="Trazado_885" data-name="Trazado 885" d="M419.164,31.006a1.378,1.378,0,0,0,1.378-1.378V28.243a1.378,1.378,0,0,0-2.756,0v1.385A1.378,1.378,0,0,0,419.164,31.006Z" transform="translate(-341.015 -26.865)" fill="#04425c"></path></g></g></svg>