<svg xmlns="http://www.w3.org/2000/svg" xmlns:xlink="http://www.w3.org/1999/xlink" width="100" height="100" viewBox="0 0 100 100"><defs><clipPath id="clip-path"><rect id="Rect&#xE1;ngulo_2554" data-name="Rect&#xE1;ngulo 2554" width="100" height="100" transform="translate(-17821 -9120)" fill="#fff" stroke="#707070" stroke-width="1"></rect></clipPath></defs><g id="Enmascarar_grupo_134" data-name="Enmascarar grupo 134" transform="translate(17821 9120)" clip-path="url(#clip-path)"><g id="consumer_discuss" data-name="consumer discuss" transform="translate(-17811 -9110)"><path id="Trazado_893" data-name="Trazado 893" d="M75.212,66.253H71.095c-.984-4.765-1.567-10.358-8.028-13.245,3.418-2.6,3.082-5.9,3.082-8.766a7.769,7.769,0,1,0-15.537,0c0,3.082-.311,6.176,3.069,8.766-2.447,1.075-.414,1.165-3.548-1.385a15.874,15.874,0,0,0-4.635-2.59c4.117-2.939,3.884-6.875,3.884-9.97a9.063,9.063,0,0,0-18.127,0c0,2.874-.44,6.94,3.884,9.983a15.654,15.654,0,0,0-6.785,4.713,10.565,10.565,0,0,0-1.411-.751c3.3-2.615,2.952-5.917,2.952-8.766a7.769,7.769,0,1,0-15.537,0c0,3.082-.311,6.189,3.082,8.778C10.953,55.9,10.357,61.67,9.412,66.253H5.295a1.295,1.295,0,1,0,0,2.59H75.212a1.295,1.295,0,0,0,0-2.59ZM53.2,46.832v-2.59a5.179,5.179,0,1,1,10.358,0v2.59a5.179,5.179,0,0,1-10.358,0ZM33.78,41.653v-2.59a6.474,6.474,0,0,1,12.948,0v2.59a6.474,6.474,0,0,1-12.948,0ZM16.948,46.832v-2.59a5.179,5.179,0,1,1,10.358,0v2.59a5.179,5.179,0,0,1-10.358,0ZM12.83,62.511A9.426,9.426,0,0,1,26.723,55.9c-1.774,2.978-2.072,5.788-3.056,10.358H17.31l.932-3.574a1.332,1.332,0,1,0-2.59-.621l-1.01,4.2h-2.59Zm37.652,3.742-1.295-5.464a1.3,1.3,0,0,0-2.512.634l1.139,4.829H32.77l1.01-4.92a1.32,1.32,0,1,0-2.59-.518l-1.062,5.438H26.322a66.862,66.862,0,0,1,1.489-6.59,13.142,13.142,0,0,1,23.15-3.418c2.007,2.8,2.2,5.179,3.224,10.009Zm15.382,0-1.01-4.2a1.295,1.295,0,0,0-2.512.621l.855,3.574H56.839c-1.1-5.179-1.411-7.639-3.056-10.358A9.4,9.4,0,0,1,67.676,62.55l.764,3.7Z" transform="translate(0 7.664)" fill="#04425c"></path><path id="Trazado_894" data-name="Trazado 894" d="M67.443,4H13.063A9.063,9.063,0,0,0,4,13.063v7.769A9.063,9.063,0,0,0,13.063,29.9H17.44l3.535,7.056a1.295,1.295,0,0,0,2.3,0L26.814,29.9H36.861l2.24,4.467a1.295,1.295,0,0,0,2.3,0l2.24-4.467H53.693l3.535,7.056a1.295,1.295,0,0,0,2.3,0L63.067,29.9h4.376a9.063,9.063,0,0,0,9.063-9.063V13.063A9.063,9.063,0,0,0,67.443,4Zm6.474,16.832a6.474,6.474,0,0,1-6.474,6.474H62.264c-1.062,0-1.01.414-3.884,6.163-2.939-5.865-2.836-6.163-3.884-6.163-12.948,0-12.326-.246-12.805.712l-1.437,2.861-1.437-2.861c-.479-.971-.078-.712-12.805-.712-1.062,0-1.01.414-3.884,6.163-2.939-5.865-2.836-6.163-3.884-6.163H13.063A6.474,6.474,0,0,1,6.59,20.832V13.063A6.474,6.474,0,0,1,13.063,6.59h54.38a6.474,6.474,0,0,1,6.474,6.474Z" transform="translate(0 0)" fill="#04425c"></path><path id="Trazado_895" data-name="Trazado 895" d="M24.842,12.528l-2.874-.557-1.424-2.59a1.295,1.295,0,0,0-2.266,0l-1.424,2.59c-3.056.6-3.548.518-3.884,1.424s.311,1.295,2.279,3.431c-.388,3.094-.621,3.548.168,4.1s1.295.1,3.962-1.1c2.9,1.295,2.81,1.295,3.2,1.295a1.295,1.295,0,0,0,1.295-1.45l-.324-2.823L25.541,14.7a1.295,1.295,0,0,0-.7-2.175Zm-3.794,5.179c-1.839-.855-1.476-.842-3.263,0,.233-1.968.363-1.618-1.01-3.107,1.981-.388,1.683-.194,2.59-1.929.958,1.735.647,1.541,2.59,1.929-1.243,1.463-1.152,1.113-.906,3.133Z" transform="translate(2.619 1.39)" fill="#04425c"></path><path id="Trazado_896" data-name="Trazado 896" d="M36.29,10.024a3.884,3.884,0,0,0-2.758,1.139,3.884,3.884,0,1,0-5.5,5.477l4.622,4.622a1.3,1.3,0,0,0,1.826,0l4.583-4.571a3.884,3.884,0,0,0-2.771-6.668Zm.932,4.829-3.69,3.664-3.677-3.7a1.295,1.295,0,0,1,.893-2.2c.634,0,.8.259,1.864,1.295a1.3,1.3,0,0,0,1.826,0l.919-.919a1.318,1.318,0,0,1,1.864,1.864Z" transform="translate(6.721 1.745)" fill="#04425c"></path><path id="Trazado_897" data-name="Trazado 897" d="M52.842,13.528l-2.874-.557-1.424-2.59a1.295,1.295,0,0,0-2.266,0l-1.424,2.59c-3.056.6-3.548.518-3.884,1.424s.311,1.295,2.279,3.431c-.388,3.094-.621,3.548.168,4.1s1.36.1,3.962-1.1c2.9,1.295,2.81,1.295,3.2,1.295a1.295,1.295,0,0,0,1.295-1.45l-.324-2.823L53.541,15.7a1.295,1.295,0,0,0-.7-2.175Zm-3.794,5.179c-1.839-.855-1.476-.842-3.263,0,.233-1.968.363-1.618-1.01-3.107,1.981-.388,1.683-.194,2.59-1.929.958,1.735.647,1.541,2.59,1.929-1.243,1.463-1.152,1.113-.906,3.133Z" transform="translate(10.872 1.684)" fill="#04425c"></path></g></g></svg>