<svg xmlns="http://www.w3.org/2000/svg" xmlns:xlink="http://www.w3.org/1999/xlink" width="100" height="100" viewBox="0 0 100 100"><defs><clipPath id="clip-path"><rect id="Rect&#xE1;ngulo_2555" data-name="Rect&#xE1;ngulo 2555" width="100" height="100" transform="translate(-17670 -9120)" fill="#fff" stroke="#707070" stroke-width="1"></rect></clipPath></defs><g id="Enmascarar_grupo_135" data-name="Enmascarar grupo 135" transform="translate(17670 9120)" clip-path="url(#clip-path)"><g id="grupo" transform="translate(-17662 -9189.184)"><g id="Grupo_356" data-name="Grupo 356" transform="translate(23.673 92.184)"><g id="Grupo_355" data-name="Grupo 355"><path id="Trazado_890" data-name="Trazado 890" d="M177.092,122.465l-7.15-3.178a1.4,1.4,0,0,1-.831-1.279v-1.964a10.42,10.42,0,0,0,3.946-8.163v-2.764a2.55,2.55,0,0,0,1.315-2.228v-.268a10.448,10.448,0,0,0-10.437-10.437H161.3a10.448,10.448,0,0,0-10.437,10.437v2.434a2.58,2.58,0,0,0,.982,2.068,2.4,2.4,0,0,0,.333.216v.543a10.42,10.42,0,0,0,3.945,8.163v1.964a1.4,1.4,0,0,1-.831,1.279l-7.15,3.178a6.5,6.5,0,0,0-3.855,5.932v16.309a1.23,1.23,0,0,0,2.461,0V128.4a4.026,4.026,0,0,1,.025-.423l3.295,3.295a2.7,2.7,0,0,1,.8,1.92v11.517a1.23,1.23,0,1,0,2.461,0V133.188a5.142,5.142,0,0,0-1.516-3.66l-3.928-3.928a4.019,4.019,0,0,1,1.261-.886l7.03-3.124,5.213,5.213v17.9a1.23,1.23,0,1,0,2.461,0V126.8l5.213-5.213,7.029,3.124a4.017,4.017,0,0,1,1.261.886l-3.928,3.928a5.142,5.142,0,0,0-1.516,3.66v11.517a1.23,1.23,0,1,0,2.461,0V133.188a2.7,2.7,0,0,1,.8-1.92l3.295-3.295a4.016,4.016,0,0,1,.025.423v16.308a1.23,1.23,0,0,0,2.461,0V128.4A6.5,6.5,0,0,0,177.092,122.465Zm-14.473,2.088-4.574-4.574a3.854,3.854,0,0,0,.544-1.971v-.5a10.428,10.428,0,0,0,8.06,0v.5a3.853,3.853,0,0,0,.544,1.971Zm0-8.7a7.984,7.984,0,0,1-7.976-7.975v-.553a7.275,7.275,0,0,0,2.235-1.451,1.231,1.231,0,0,0-1.669-1.808,4.42,4.42,0,0,1-1.827,1.091.2.2,0,0,1-.033.006.25.25,0,0,1-.021-.111v-2.434a7.985,7.985,0,0,1,7.976-7.976h2.63a7.985,7.985,0,0,1,7.976,7.976v.268a.079.079,0,0,1-.055.081c-7.368,1.455-11.064-1.287-12.311-2.534a1.23,1.23,0,0,0-1.74,1.74c3.821,3.821,9.4,3.89,12.791,3.482v2.224A7.985,7.985,0,0,1,162.619,115.857Z" transform="translate(-144.292 -92.184)" fill="#04425c"></path></g></g><g id="Grupo_358" data-name="Grupo 358" transform="translate(0 98.76)"><g id="Grupo_357" data-name="Grupo 357"><path id="Trazado_891" data-name="Trazado 891" d="M22.188,149.278v-2.631a9.12,9.12,0,0,0-4.182-7.662,5.176,5.176,0,1,0-9.88,0,9.119,9.119,0,0,0-4.181,7.662v2.63a9.116,9.116,0,0,0,3.945,7.5v2.706a1.392,1.392,0,0,1-.774,1.252l-4.256,2.128A5.148,5.148,0,0,0,0,167.5v10.713a1.23,1.23,0,1,0,2.461,0V168.03l2,2a2.7,2.7,0,0,1,.8,1.92v6.257a1.23,1.23,0,1,0,2.461,0v-6.257a5.143,5.143,0,0,0-1.516-3.66l-2.79-2.79c-.013-.013-.028-.025-.042-.038a2.743,2.743,0,0,1,.588-.4l4.256-2.128a3.918,3.918,0,0,0,.61-.381l3.008,3.009v12.642a1.23,1.23,0,1,0,2.461,0V165.569l3.009-3.009a3.9,3.9,0,0,0,.61.381l1.174.587a1.23,1.23,0,1,0,1.1-2.2l-1.174-.587a1.392,1.392,0,0,1-.774-1.252v-2.706A9.117,9.117,0,0,0,22.188,149.278Zm-9.121-14.552a2.718,2.718,0,0,1,2.715,2.715,2.758,2.758,0,0,1-.043.485,9.121,9.121,0,0,0-5.34,0,2.7,2.7,0,0,1,2.668-3.2Zm0,5.261a6.668,6.668,0,0,1,6.66,6.66v.446a7.724,7.724,0,0,1-8.306-2.5,1.23,1.23,0,0,0-1.854-.132,8.049,8.049,0,0,1-3.156,2.015A6.667,6.667,0,0,1,13.067,139.987Zm0,23.332-2.843-2.843a3.9,3.9,0,0,0,.128-.988v-1.5a9.138,9.138,0,0,0,5.43,0v1.5a3.9,3.9,0,0,0,.128.988Zm0-7.381a6.668,6.668,0,0,1-6.66-6.66v-.255a9.867,9.867,0,0,0,3.954-1.97,11.1,11.1,0,0,0,2.282,1.661,9.787,9.787,0,0,0,4.7,1.214,10.31,10.31,0,0,0,2.372-.284A6.669,6.669,0,0,1,13.067,155.938Z" transform="translate(0 -132.265)" fill="#04425c"></path></g></g><g id="Grupo_360" data-name="Grupo 360" transform="translate(59.182 101.39)"><g id="Grupo_359" data-name="Grupo 359"><path id="Trazado_892" data-name="Trazado 892" d="M382.683,173.64,375.8,170.2a1.392,1.392,0,0,1-.774-1.252V167.2a7.788,7.788,0,0,0,2.63-5.837v-1.4h.085a1.23,1.23,0,0,0,1.23-1.23V156.1a7.815,7.815,0,0,0-7.806-7.806h-2.63a7.815,7.815,0,0,0-7.806,7.806v2.63a1.23,1.23,0,0,0,1.23,1.23l.085,0v1.4a7.788,7.788,0,0,0,2.63,5.837v1.744a1.392,1.392,0,0,1-.774,1.252,1.231,1.231,0,1,0,1.1,2.2,3.918,3.918,0,0,0,.61-.381l3.009,3.009v16.587a1.23,1.23,0,1,0,2.461,0V175.026l3.008-3.009a3.9,3.9,0,0,0,.61.381l6.663,3.332-2.021,2.021a5.143,5.143,0,0,0-1.516,3.66v10.2a1.23,1.23,0,1,0,2.461,0v-10.2a2.7,2.7,0,0,1,.8-1.92l1.914-1.914a2.741,2.741,0,0,1,.09.693v13.343a1.23,1.23,0,0,0,2.461,0V178.27A5.147,5.147,0,0,0,382.683,173.64Zm-19.5-16.389V156.1h0a5.351,5.351,0,0,1,5.345-5.345h2.63a5.351,5.351,0,0,1,5.345,5.345v1.367a18.819,18.819,0,0,1-8.608-2.391,1.23,1.23,0,0,0-1.553.154A8.058,8.058,0,0,1,363.187,157.251Zm6.661,15.525L367,169.933a3.9,3.9,0,0,0,.128-.987v-.262a7.8,7.8,0,0,0,5.43,0v.262a3.888,3.888,0,0,0,.128.987Zm0-6.066a5.351,5.351,0,0,1-5.345-5.345v-1.984h0a10.412,10.412,0,0,0,2.888-1.762,21.86,21.86,0,0,0,7.8,2.218v1.528A5.351,5.351,0,0,1,369.847,166.71Z" transform="translate(-360.726 -148.298)" fill="#04425c"></path></g></g></g></g></svg>