<svg xmlns="http://www.w3.org/2000/svg" xmlns:xlink="http://www.w3.org/1999/xlink" width="100" height="100" viewBox="0 0 100 100"><defs><clipPath id="clip-path"><rect id="Rect&#xE1;ngulo_2553" data-name="Rect&#xE1;ngulo 2553" width="100" height="100" transform="translate(-17821 -9233)" fill="#fff" stroke="#707070" stroke-width="1"></rect></clipPath></defs><g id="Enmascarar_grupo_132" data-name="Enmascarar grupo 132" transform="translate(17821 9233)" clip-path="url(#clip-path)"><g id="noun-idea-1738137" transform="translate(-17980.689 -9292.82)"><path id="Trazado_901" data-name="Trazado 901" d="M321.7,438.66h9.32v3.072H321.7Z" transform="translate(-116.979 -303.99)" fill="#04425c"></path><path id="Trazado_902" data-name="Trazado 902" d="M309.35,191.6l1.283-1.274-2.155-2.145-1.283,1.274a7.92,7.92,0,0,0-2.763-1.143v-1.667h-3.053v1.676a7.591,7.591,0,0,0-2.763,1.142l-1.283-1.283-2.155,2.145,1.283,1.274h0a7.733,7.733,0,0,0-1.142,2.744h-1.686v3.025h1.686a7.7,7.7,0,0,0,1.142,2.753l-1.367,1.358,2.155,2.145,1.367-1.367a7.581,7.581,0,0,0,2.763,1.142v1.676h3.053V203.4a7.733,7.733,0,0,0,2.763-1.133l1.283,1.274,2.155-2.145-1.283-1.274a7.5,7.5,0,0,0,1.152-2.753h1.676v-3.025H310.5a7.491,7.491,0,0,0-1.152-2.744Zm-6.444,8.87a4.627,4.627,0,1,1,3.3-1.329,4.61,4.61,0,0,1-3.3,1.329Z" transform="translate(-93.529 -93.433)" fill="#04425c"></path><path id="Trazado_903" data-name="Trazado 903" d="M272.027,149.41a15.323,15.323,0,0,0-15.351,15.258,15.691,15.691,0,0,0,2.108,7.728c5.676,10.172,7.662,16.466,8.833,23.041h8.823c1.171-6.557,3.156-12.869,8.833-23.041h0a15.689,15.689,0,0,0,2.108-7.728,15.323,15.323,0,0,0-15.351-15.258ZM282.555,170.9c-5.217,9.367-7.409,15.576-8.673,21.458h-3.747c-1.265-5.882-3.456-12.12-8.673-21.458h0a12.7,12.7,0,0,1-1.723-6.228,12.251,12.251,0,1,1,24.5,0,12.706,12.706,0,0,1-1.686,6.228Z" transform="translate(-62.651 -62.32)" fill="#04425c"></path><path id="Trazado_904" data-name="Trazado 904" d="M340.72,74.82h3.044v9.207H340.72Z" transform="translate(-132.87)" fill="#04425c"></path><path id="Trazado_905" data-name="Trazado 905" d="M410.02,100.581l2.716,1.358,4.177-8.215L414.2,92.357Z" transform="translate(-190.771 -14.652)" fill="#04425c"></path><path id="Trazado_906" data-name="Trazado 906" d="M469.97,143.83l-7.231,5.761,1.9,2.37,7.24-5.77Z" transform="translate(-234.818 -57.658)" fill="#04425c"></path><path id="Trazado_907" data-name="Trazado 907" d="M257.258,100.581l-4.187-8.223-2.716,1.367,4.177,8.215Z" transform="translate(-57.37 -14.653)" fill="#04425c"></path><path id="Trazado_908" data-name="Trazado 908" d="M181.69,146.189l7.24,5.77,1.9-2.37-7.231-5.761Z" transform="translate(0 -57.656)" fill="#04425c"></path><path id="Trazado_909" data-name="Trazado 909" d="M326.687,471.392a4.617,4.617,0,0,0,4.683-4.6H322.1a4.617,4.617,0,0,0,4.589,4.6Z" transform="translate(-117.311 -327.495)" fill="#04425c"></path></g></g></svg>