<svg xmlns="http://www.w3.org/2000/svg" xmlns:xlink="http://www.w3.org/1999/xlink" width="100" height="100" viewBox="0 0 100 100"><defs><clipPath id="clip-path"><rect id="Rect&#xE1;ngulo_2556" data-name="Rect&#xE1;ngulo 2556" width="100" height="100" transform="translate(-17659 -9233)" fill="#fff" stroke="#707070" stroke-width="1"></rect></clipPath></defs><g id="Enmascarar_grupo_133" data-name="Enmascarar grupo 133" transform="translate(17659 9233)" clip-path="url(#clip-path)"><g id="Money_growth" data-name="Money growth" transform="translate(-17641.988 -9216.014)"><path id="Trazado_886" data-name="Trazado 886" d="M53.521,19.485A3.485,3.485,0,0,0,50.036,16H37.489A3.485,3.485,0,0,0,34,19.485c0,4.726-.153,5.13.711,6.273A3.5,3.5,0,0,0,34,27.85c0,4.726-.153,5.13.711,6.273C33.823,35.308,34,35.88,34,40.4a3.5,3.5,0,0,0,.711,2.091A3.5,3.5,0,0,0,34,44.579c0,4.726-.153,5.13.711,6.273C33.823,52.037,34,52.609,34,57.126a3.485,3.485,0,0,0,3.485,3.485H50.036a3.485,3.485,0,0,0,3.485-3.485c0-4.726.153-5.13-.711-6.273a3.5,3.5,0,0,0,.711-2.091c0-4.726.153-5.13-.711-6.273.892-1.185.711-1.757.711-6.273a3.5,3.5,0,0,0-.711-2.091,3.5,3.5,0,0,0,.711-2.091c0-4.726.153-5.13-.711-6.273C53.7,24.574,53.521,24,53.521,19.485Zm-16.729,0a.7.7,0,0,1,.7-.7H50.036c.92,0,.7.725.7,4.879a.7.7,0,0,1-.7.7H37.489C36.569,24.365,36.792,23.64,36.792,19.485ZM50.733,27.85c0,4.182.223,4.879-.7,4.879H37.489a.7.7,0,0,1-.7-.7c0-4.182-.223-4.879.7-4.879H50.036A.7.7,0,0,1,50.733,27.85Zm0,8.365c0,4.182.223,4.879-.7,4.879H37.489a.7.7,0,0,1-.7-.7c0-4.182-.223-4.879.7-4.879H50.036A.7.7,0,0,1,50.733,36.214Zm0,8.365c0,4.182.223,4.879-.7,4.879H37.489a.7.7,0,0,1-.7-.7c0-4.182-.223-4.879.7-4.879H50.036A.7.7,0,0,1,50.733,44.579Zm0,12.547a.7.7,0,0,1-.7.7H37.489c-.92,0-.7-.725-.7-4.879a.7.7,0,0,1,.7-.7H50.036C50.956,52.246,50.733,52.971,50.733,57.126Z" transform="translate(13.399 6.3)" fill="#04425c"></path><path id="Trazado_887" data-name="Trazado 887" d="M33.036,22H20.489A3.485,3.485,0,0,0,17,25.485c0,4.726-.153,5.13.711,6.273C16.823,32.944,17,33.515,17,38.032a3.5,3.5,0,0,0,.711,2.091A3.5,3.5,0,0,0,17,42.214c0,4.726-.153,5.13.711,6.273C16.823,49.673,17,50.244,17,54.761a3.485,3.485,0,0,0,3.485,3.485H33.036a3.485,3.485,0,0,0,3.485-3.485c0-4.726.153-5.13-.711-6.273a3.5,3.5,0,0,0,.711-2.091c0-4.726.153-5.13-.711-6.273.892-1.185.711-1.757.711-6.273a3.5,3.5,0,0,0-.711-2.091c.892-1.185.711-1.757.711-6.273A3.485,3.485,0,0,0,33.036,22ZM19.792,25.485a.7.7,0,0,1,.7-.7H33.036c.92,0,.7.725.7,4.879a.7.7,0,0,1-.7.7H20.489C19.569,30.365,19.792,29.64,19.792,25.485ZM33.733,33.85c0,4.182.223,4.879-.7,4.879H20.489a.7.7,0,0,1-.7-.7c0-4.182-.223-4.879.7-4.879H33.036A.7.7,0,0,1,33.733,33.85Zm0,8.365c0,4.182.223,4.879-.7,4.879H20.489a.7.7,0,0,1-.7-.7c0-4.182-.223-4.879.7-4.879H33.036A.7.7,0,0,1,33.733,42.214Zm0,12.547a.7.7,0,0,1-.7.7H20.489c-.92,0-.7-.725-.7-4.879a.7.7,0,0,1,.7-.7H33.036C33.956,49.882,33.733,50.607,33.733,54.761Z" transform="translate(6.699 8.665)" fill="#04425c"></path><path id="Trazado_888" data-name="Trazado 888" d="M9.763,22A9.759,9.759,0,0,0,3,38.729a3.471,3.471,0,0,0-3,3.485c0,4.726-.153,5.13.711,6.273C-.177,49.673,0,50.244,0,54.761a3.485,3.485,0,0,0,3.485,3.485H16.036a3.485,3.485,0,0,0,3.485-3.485c0-4.726.153-5.13-.711-6.273.892-1.185.711-1.757.711-6.273a3.471,3.471,0,0,0-3-3.485A9.759,9.759,0,0,0,9.763,22Zm-6.97,9.759a6.97,6.97,0,1,1,6.97,6.97,6.97,6.97,0,0,1-6.97-6.97Zm13.941,23a.7.7,0,0,1-.7.7H3.489c-.92,0-.7-.725-.7-4.879a.7.7,0,0,1,.7-.7H16.036C16.956,49.882,16.733,50.607,16.733,54.761Zm-.7-13.244c.92,0,.7.725.7,4.879a.7.7,0,0,1-.7.7H3.489c-.92,0-.7-.725-.7-4.879a.7.7,0,0,1,.7-.7Z" transform="translate(0 8.665)" fill="#04425c"></path><path id="Trazado_889" data-name="Trazado 889" d="M7.416,26.482c.725,0-.488.836,16.8-13.578l8.88,6.343a1.394,1.394,0,0,0,1.687,0L52.459,5.069l-.7,2.788a1.395,1.395,0,0,0,2.7.683l1.743-6.817A1.6,1.6,0,0,0,55.944.51c-.627-.725-.641-.516-8.1-.251a1.395,1.395,0,1,0,.1,2.788l2.788-.1L33.9,16.375l-8.95-6.357a1.394,1.394,0,0,0-1.7,0L6.524,23.959a1.394,1.394,0,0,0,.892,2.523Z" transform="translate(2.347 0)" fill="#04425c"></path></g></g></svg>